<?xml version="1.0" encoding="UTF-8"?>
<!DOCTYPE svg PUBLIC "-//W3C//DTD SVG 1.1//EN" "http://www.w3.org/Graphics/SVG/1.1/DTD/svg11.dtd">
<!-- Creator: CorelDRAW 2021 (64-Bit Оценочная версия) -->
<svg xmlns="http://www.w3.org/2000/svg" xml:space="preserve" width="9.7846mm" height="9.7846mm" version="1.1" shape-rendering="geometricPrecision" text-rendering="geometricPrecision" image-rendering="optimizeQuality" fill-rule="evenodd" clip-rule="evenodd"
viewBox="0 0 5.23 5.23"
 xmlns:xlink="http://www.w3.org/1999/xlink"
 xmlns:xodm="http://www.corel.com/coreldraw/odm/2003">
 <defs>
   <linearGradient id="id0" gradientUnits="userSpaceOnUse" x1="0.58" y1="0.54" x2="4.69" y2="4.65">
    <stop offset="0" stop-opacity="1" stop-color="#009A84"/>
    <stop offset="0.25098" stop-opacity="1" stop-color="#218A7F"/>
    <stop offset="1" stop-opacity="1" stop-color="#437A79"/>
   </linearGradient>
 </defs>
 <g id="Слой_x0020_1">
  <metadata id="CorelCorpID_0Corel-Layer"/>
  <path fill="url(#id0)" d="M0.43 0.27l1.32 0c0.24,0 0.43,0.19 0.43,0.43l0 1.32c0,0.24 -0.19,0.43 -0.43,0.43l-1.32 0c-0.24,0 -0.43,-0.19 -0.43,-0.43l0 -1.32c0,-0.24 0.19,-0.43 0.43,-0.43zm0 4.95l1.32 0c0.24,0 0.43,-0.19 0.43,-0.43l0 -1.32c0,-0.24 -0.19,-0.43 -0.43,-0.43l-1.32 0c-0.24,0 -0.43,0.19 -0.43,0.43l0 1.32c0,0.24 0.19,0.43 0.43,0.43zm4.09 0l-1.32 0c-0.24,0 -0.43,-0.19 -0.43,-0.43l0 -1.32c0,-0.24 0.19,-0.43 0.43,-0.43l1.32 0c0.24,0 0.43,0.19 0.43,0.43l0 1.32c0,0.24 -0.19,0.43 -0.43,0.43zm-0.96 -5.1l-0.93 0.93c-0.17,0.17 -0.17,0.44 -0,0.61l0.93 0.93c0.17,0.17 0.44,0.17 0.61,0l0.93 -0.93c0.17,-0.17 0.17,-0.44 0,-0.61l-0.93 -0.93c-0.17,-0.17 -0.44,-0.17 -0.61,-0z"/>
 </g>
</svg>
