<?xml version="1.0" encoding="UTF-8"?>
<!DOCTYPE svg PUBLIC "-//W3C//DTD SVG 1.1//EN" "http://www.w3.org/Graphics/SVG/1.1/DTD/svg11.dtd">
<!-- Creator: CorelDRAW -->
<svg xmlns="http://www.w3.org/2000/svg" xml:space="preserve" width="272px" height="213px" shape-rendering="geometricPrecision" text-rendering="geometricPrecision" image-rendering="optimizeQuality" fill-rule="evenodd" clip-rule="evenodd"
viewBox="0 0 272 212.87">
 <defs>
   <linearGradient id="id0" gradientUnits="userSpaceOnUse" x1="69.6486" y1="40.0183" x2="202.304" y2="172.674">
    <stop offset="0" stop-color="#00FF66"/>
    <stop offset="0.25098" stop-color="#00BF4E"/>
    <stop offset="1" stop-color="#007F35"/>
   </linearGradient>
 </defs>
 <g id="Layer_x0020_1">
  <metadata id="CorelCorpID_0Corel-Layer"/>
  <path fill="url(#id0)" d="M271.566 69.8733l0 115.288c0,12.3642 -10.116,22.4802 -22.4814,22.4802l-68.4387 0 -89.1994 0 -68.7178 0c-12.2885,0 -22.3418,-10.0534 -22.3418,-22.3407l0 -115.427 113.591 82.0825c12.0993,8.74303 31.8973,8.74303 43.9966,0l113.592 -82.0825zm-248.837 -64.8235l68.7178 0 89.1994 0 68.4387 0c12.3654,0 22.4814,10.116 22.4814,22.4802l0 20.0026 -113.592 82.0825c-12.0993,8.74303 -31.8973,8.74303 -43.9966,0l-113.591 -82.0825 0 -20.1422c0,-12.2873 10.0534,-22.3407 22.3418,-22.3407z"/>
 </g>
</svg>
