<?xml version="1.0" encoding="UTF-8"?>
<!DOCTYPE svg PUBLIC "-//W3C//DTD SVG 1.1//EN" "http://www.w3.org/Graphics/SVG/1.1/DTD/svg11.dtd">
<!-- Creator: CorelDRAW 2021 (64-Bit Оценочная версия) -->
<svg xmlns="http://www.w3.org/2000/svg" xml:space="preserve" width="9.5107mm" height="8.5316mm" version="1.1" shape-rendering="geometricPrecision" text-rendering="geometricPrecision" image-rendering="optimizeQuality" fill-rule="evenodd" clip-rule="evenodd"
viewBox="0 0 4.39 3.94"
 xmlns:xlink="http://www.w3.org/1999/xlink"
 xmlns:xodm="http://www.corel.com/coreldraw/odm/2003">
 <defs>
   <linearGradient id="id0" gradientUnits="userSpaceOnUse" x1="0.59" y1="0.31" x2="3.81" y2="3.54">
    <stop offset="0" stop-opacity="1" stop-color="#07DC58"/>
    <stop offset="0.25098" stop-opacity="1" stop-color="#06B049"/>
    <stop offset="1" stop-opacity="1" stop-color="#048439"/>
   </linearGradient>
 </defs>
 <g id="Слой_x0020_1">
  <metadata id="CorelCorpID_0Corel-Layer"/>
  <path fill="url(#id0)" d="M2.2 0.49c-0.53,-0.49 -1.07,-0.58 -1.48,-0.41 -0.24,0.1 -0.44,0.28 -0.56,0.53 -0.12,0.24 -0.18,0.55 -0.14,0.88 0.1,0.76 0.71,1.69 2.16,2.44l0.02 0.01 0.02 -0.01c1.45,-0.76 2.06,-1.68 2.16,-2.44 0.04,-0.33 -0.01,-0.64 -0.14,-0.88 -0.13,-0.25 -0.32,-0.43 -0.56,-0.53 -0.41,-0.17 -0.96,-0.08 -1.48,0.41z"/>
 </g>
</svg>
