<?xml version="1.0" encoding="UTF-8"?>
<!DOCTYPE svg PUBLIC "-//W3C//DTD SVG 1.1//EN" "http://www.w3.org/Graphics/SVG/1.1/DTD/svg11.dtd">
<!-- Creator: CorelDRAW -->
<svg xmlns="http://www.w3.org/2000/svg" xml:space="preserve" width="343px" height="354px" shape-rendering="geometricPrecision" text-rendering="geometricPrecision" image-rendering="optimizeQuality" fill-rule="evenodd" clip-rule="evenodd"
viewBox="0 0 343 354.828">
 <defs>
   <linearGradient id="id0" gradientUnits="userSpaceOnUse" x1="75.2909" y1="81.2153" x2="268.107" y2="274.031">
    <stop offset="0" stop-color="#00FF66"/>
    <stop offset="0.25098" stop-color="#00BF4E"/>
    <stop offset="1" stop-color="#007F35"/>
   </linearGradient>
 </defs>
 <g id="Layer_x0020_1">
  <metadata id="CorelCorpID_0Corel-Layer"/>
  <path fill="url(#id0)" d="M215.567 279.918l-84.967 0 0.0130103 -0.80191 -0.0130103 -2.39036 -0.0662345 -2.38917 -0.11591 -2.38917 -0.169134 -2.39036 -0.225907 -2.39154 -0.281497 -2.38444 -0.333538 -2.39036 -0.392676 -2.39154 -0.452997 -2.39036 -0.508586 -2.38917 -0.568907 -2.39036 -0.628045 -2.39036 -0.690731 -2.39154 -0.7546 -2.38681 -0.81019 -2.38799 -0.879972 -2.38917 -0.942659 -2.38917 -1.00771 -2.39036 -1.07394 -2.38917 -1.14136 -2.38917 -1.20878 -2.38799 -1.27974 -2.38208 -1.3448 -2.38799 -1.41576 -2.38444 -1.48791 -2.38681 -1.56242 -2.38089 -1.63221 -2.38326 -1.70672 -2.38444 -1.78123 -2.38326 -1.81435 -2.32412 -2.00241 -3.18872 -1.91962 -3.23011 -1.80016 -3.24076 -1.68661 -3.24904 -1.56006 -3.25732 -1.43823 -3.26678 -1.30931 -3.27861 -1.17921 -3.28216 -1.04083 -3.29753 -0.909541 -3.30581 -0.764062 -3.31646 -0.625679 -3.32828 -0.475469 -3.33893 -0.327624 -3.35076 -0.173866 -3.36613 -0.0201069 -3.37914 0.141931 -3.39452 0.303969 -3.40634 0.469555 -3.42409 0.636324 -3.43946 0.812555 -3.4572 0.986421 -3.47258 1.16383 -3.49269 1.34953 -3.51043 1.5364 -3.5329 1.72564 -3.54828 1.9208 -3.57193 2.11596 -3.58494 2.32057 -3.61569 2.52164 -3.62989 2.73099 -3.65118 2.89184 -3.61569 2.61035 -2.35724 2.6754 -2.28746 2.68841 -2.16681 2.70024 -2.04499 2.71443 -1.92435 2.72508 -1.80607 2.73809 -1.68661 2.74755 -1.56952 2.76411 -1.45598 2.77239 -1.33888 2.78776 -1.22179 2.79368 -1.11179 2.81378 -0.993517 2.8197 -0.885886 2.83507 -0.772341 2.84572 -0.656431 2.85991 -0.552348 2.8741 -0.439986 2.88238 -0.333538 2.89658 -0.21881 2.91077 -0.11591 2.92141 -0.00709655 2.93679 0.101717 2.94862 0.204617 2.96518 0.3087 2.97464 0.416331 2.98883 0.518048 3.00066 0.625679 3.01603 0.726214 3.02668 0.831479 3.04206 0.928466 3.02077 1.02545 4.05686 1.78123 3.91375 1.91962 3.75053 2.04381 3.58258 2.16681 3.42054 2.27563 3.2585 2.38917 3.09883 2.49326 2.93324 2.59616 2.77712 2.69078 2.61508 2.78303 2.46014 2.87056 2.29455 2.9569 2.14079 3.03141 1.9823 3.10947 1.82618 3.17571 1.66887 3.24904 1.51748 3.30108 1.36017 3.36613 1.20641 3.41344 1.04911 3.46312 0.903628 3.5057 0.743955 3.54473 0.591379 3.58376 0.441169 3.61214 0.292141 3.63817 0.1372 3.65827 -0.0130103 3.67483 -0.163221 3.69021 -0.309883 3.69612 -0.462459 3.69849 -0.611486 3.6973 -0.762879 3.71031 -0.753417 3.38506 -0.937928 3.27742 -1.10943 3.20528 -1.26673 3.14141 -1.4063 3.0799 -1.53286 3.03378 -1.64285 2.98647 -1.73984 2.95571 -1.81553 2.92378 -1.87704 2.90486 -1.92435 2.8883 -1.95628 2.88711 -1.96574 2.88238 -1.96811 2.89658 -1.94564 2.91195 -1.91134 2.93797 -1.85693 2.96636 -1.7907 3.00894 -1.70436 3.05388 -1.60146 3.11302 -1.48081 3.17571 -1.34598 3.24667 -1.19459 3.32592 -1.02072 3.41462 -0.832662 3.50215 -0.629228 3.60741 -0.404503 3.7115 -0.165586 3.82622 0.0922552 3.94332 0.360741 4.06869 0.650517 4.20116 0.531059 2.41283zm-19.0661 50.3311l0 0c0.0319345,0 0.063869,0 0.0934379,0l0 -0.00118276 0 0 0.00236552 0 0 0.00118276c2.26143,0 4.30288,0.915455 5.78487,2.39509 1.47963,1.482 2.39627,3.52699 2.39627,5.78487l0 0 0 0 0 0 0 0c0,0.15849 -0.00591379,0.315797 -0.0153759,0.470738 0.12419,1.66769 -0.603207,3.85343 -2.23896,6.24497l0.00118276 0 -0.00118276 0 0 0 0 0c-1.78597,2.61626 -4.3218,4.98414 -6.97473,6.69678 -2.65174,1.71618 -5.42295,2.77593 -7.68083,2.77593l0 0 0 0 -0.00236552 0 0.00236552 0c-0.0331172,0 -0.063869,0 -0.0934379,-0.00118276l0 0 -1.81672 -0.00118276c-0.0484931,0.00118276 -0.098169,0.00236552 -0.146662,0.00236552l0 0 0 0 0 0 0 0c-0.0319345,0 -0.063869,0 -0.0958034,-0.00118276l0 0c-8.78198,-0.00236552 -12.1588,-0.00473103 -13.6798,-0.00591379l-0.12419 0 -0.0816103 0 -0.0792448 0 -0.101717 0 -0.0792448 0 -0.0804276 0 -0.125372 0c-1.52221,0.00118276 -4.89899,0.00354828 -13.681,0.00591379l0 0c-0.0307517,0.00118276 -0.0626862,0.00118276 -0.0946207,0.00118276l0 0 0 0 -0.00118276 0 0.00118276 0c-0.0496759,0 -0.098169,-0.00118276 -0.145479,-0.00236552l-1.82027 0.00118276 0 0c-0.0283862,0.00118276 -0.0591379,0.00118276 -0.0910724,0.00118276l0 0 0 0 0 0 0 0c-2.25907,0 -5.02909,-1.05975 -7.68202,-2.77593 -2.65293,-1.71263 -5.1864,-4.08052 -6.97354,-6.69678l0 0 0 0 0 0 0 0c-1.63812,-2.39154 -2.36315,-4.57728 -2.23896,-6.24497 -0.0106448,-0.154941 -0.0141931,-0.312248 -0.0141931,-0.470738l-0.00118276 0 0 0 0 0 0.00118276 0c0,-2.25789 0.914272,-4.30288 2.39509,-5.78487 1.48081,-1.47963 3.52107,-2.39509 5.78487,-2.39509l0 -0.00118276 0 0 0 0 0 0.00118276c0.0307517,0 0.063869,0 0.0946207,0.00118276l0 -0.00118276c26.7575,0.00709655 22.8473,0.00709655 49.6037,0zm-31.2887 -278.827l0 0 0 0 0 0 0 0c0,1.71263 0.693097,3.26914 1.8179,4.39277 1.12599,1.12244 2.67895,1.81672 4.39395,1.8179l0 0.00118276 0 0 0 0 0 -0.00118276c1.715,0 3.26914,-0.695462 4.39277,-1.8179 1.12362,-1.1248 1.82027,-2.67777 1.82027,-4.39277l0 0 0 0 0 -0.00118276 0 0c0,-0.0236552 0,-0.0473103 0,-0.0709655l0 0 0.273217 -44.4351 0 0c0.00236552,-0.0236552 0.00236552,-0.0461276 0,-0.0721483l0 0 0 0 0 0 0 0c0,-1.715 -0.693097,-3.26678 -1.8179,-4.39277 -1.12244,-1.1248 -2.67777,-1.82027 -4.39158,-1.81908l0 0 0 0 0 0 0 0c-1.71737,-0.00118276 -3.26914,0.694279 -4.39277,1.81908 -1.12362,1.1248 -1.81908,2.67658 -1.8179,4.39277l0 0 0 0 0 0 0 0c-0.00118276,0.0260207 -0.00118276,0.0484931 0,0.0721483l0 0c-0.00354828,6.34787 -0.279131,38.086 -0.277948,44.4351l0 0c0,0.0248379 -0.00118276,0.0473103 0,0.0721483zm-77.7344 35.7891l0 0 0 0 0 0 0 0c1.21233,1.21114 1.82027,2.80077 1.82027,4.39158 -0.00118276,1.59081 -0.607938,3.17926 -1.82027,4.39277l0 0 0 0 0 0.00118276 0 -0.00118276c-1.21233,1.21233 -2.80432,1.81908 -4.39277,1.81908 -1.59081,-0.00118276 -3.18044,-0.606755 -4.39277,-1.81908l-0.00118276 0.00118276 0 0 0 -0.00118276 0 0c-0.0153759,-0.0165586 -0.0319345,-0.0354828 -0.0496759,-0.0508586l0 0 -31.6163 -31.2248 0 -0.00118276c-0.0141931,-0.0165586 -0.0331172,-0.0319345 -0.0508586,-0.0496759l0 0 0 0 0 0 0 0c-1.21233,-1.21351 -1.81908,-2.80432 -1.81908,-4.39395 0.00118276,-1.59081 0.606755,-3.17926 1.81908,-4.39158l0 0 0 0 0 0 0 0c1.21469,-1.21351 2.80432,-1.81908 4.39277,-1.81908 1.58963,0 3.18044,0.605572 4.39158,1.81908l0.00236552 0 0 0 0 0 0 0c0.0177414,0.0165586 0.0331172,0.0343 0.0496759,0.0496759l0 0c4.49093,4.48975 27.1266,26.7363 31.6163,31.226l0 0c0.0177414,0.0177414 0.0331172,0.0343 0.0508586,0.0520414zm-1.11298 159.361l0 0 0 0 0 0 0 0c1.21233,-1.21233 1.82027,-2.80196 1.82027,-4.39277 -0.00118276,-1.59081 -0.607938,-3.17926 -1.82027,-4.39277l0 0 0 0 0 -0.00118276 0 0.00118276c-1.21351,-1.21233 -2.80314,-1.82027 -4.39158,-1.82027 -1.59081,0.00118276 -3.18044,0.607938 -4.39277,1.82027l-0.00118276 -0.00118276 0 0 0 0.00118276 0 0c-0.0165586,0.0165586 -0.0331172,0.0354828 -0.0496759,0.0508586l0 0 -31.6163 31.2248 0 0.00118276c-0.0165586,0.0165586 -0.0331172,0.0319345 -0.0508586,0.0496759l0 0 0 0 0 0 0 0c-1.21233,1.21351 -1.82027,2.80314 -1.82027,4.39395 0.00118276,1.58963 0.607938,3.17807 1.82027,4.39277l0 0 0 0 0 0 0 0c1.21351,1.21233 2.80314,1.8179 4.39277,1.8179 1.58963,0 3.17926,-0.605572 4.39277,-1.8179l0.00118276 0 0 0 0 0 0 0c0.0153759,-0.0177414 0.0343,-0.0354828 0.0496759,-0.0508586l0 0c4.48975,-4.48975 27.1266,-26.7363 31.6163,-31.226l0 0c0.0165586,-0.0177414 0.0319345,-0.0343 0.0496759,-0.0508586zm-31.1964 -73.143l0 0 0 0 0 0 0 0c1.715,0 3.27033,-0.694279 4.39395,-1.81908 1.12244,-1.1248 1.81672,-2.67777 1.8179,-4.39277l0.00118276 0 0 0 0 0 -0.00118276 0c0,-1.715 -0.695462,-3.26914 -1.8179,-4.39277 -1.1248,-1.12362 -2.67895,-1.82027 -4.39395,-1.82027l0 0 0 0 0 0 0 0c-0.0236552,0 -0.0473103,0 -0.0709655,0l0 0 -44.4362 -0.275583 0 0c-0.0224724,-0.00118276 -0.0473103,-0.00118276 -0.0709655,0l0 0 0 0 0 0 0 0c-1.71618,0 -3.26796,0.694279 -4.39277,1.82027 -1.1248,1.12362 -1.82027,2.67777 -1.81908,4.3904l0 0 0 0 0 0 0 0c-0.00118276,1.71855 0.694279,3.27033 1.81908,4.39395 1.12362,1.12244 2.67658,1.81908 4.39277,1.8179l0 0 0 0 0 0 0 0c0.0236552,0.00118276 0.0484931,0.00118276 0.0709655,0l0 0c6.34905,0.00236552 38.086,0.279131 44.4362,0.277948l0 0c0.0248379,0 0.0473103,0.00118276 0.0709655,0zm200.751 -86.0303l0 0 0 0 0 0 0 0c-1.21233,1.21233 -1.82027,2.79959 -1.82027,4.39158 0.00118276,1.58963 0.607938,3.17926 1.82027,4.39277l0 0 0 0 0 0.00118276 0 -0.00118276c1.21233,1.21233 2.80432,1.82027 4.39277,1.82027 1.59081,-0.00118276 3.17926,-0.607938 4.39277,-1.82027l0.00118276 0.00118276 0 0 0 -0.00118276 0 0c0.0153759,-0.0165586 0.0319345,-0.0343 0.0484931,-0.0508586l0 0 31.6175 -31.226 0 -0.00118276c0.0141931,-0.0165586 0.0331172,-0.0319345 0.0508586,-0.0496759l0 0 0 0 0 0 0 0c1.21233,-1.21351 1.81908,-2.80314 1.81908,-4.39277 -0.00118276,-1.58844 -0.606755,-3.17807 -1.81908,-4.3904l0 0 0 0 0 0 0 0c-1.21469,-1.21469 -2.80432,-1.82027 -4.39277,-1.82027 -1.58963,0 -3.18044,0.605572 -4.39158,1.82027l-0.00236552 0 0 0 0 0 0 0c-0.0177414,0.0153759 -0.0331172,0.0331172 -0.0496759,0.0496759l0 0c-4.49212,4.48739 -27.1278,26.7339 -31.6163,31.226l0 0c-0.0177414,0.0165586 -0.0331172,0.0331172 -0.0508586,0.0508586zm1.11298 159.36l0 0 0 0 0 0 0 0c-1.21233,-1.21233 -1.82145,-2.80077 -1.82145,-4.39277 0.00236552,-1.58963 0.609121,-3.17689 1.82145,-4.3904l0 0 0 0 0 -0.00236552 0 0.00236552c1.21233,-1.21351 2.80314,-1.82027 4.39158,-1.82027 1.59081,0.00118276 3.18044,0.606755 4.39277,1.82027l0.00118276 -0.00236552 0 0 0 0.00236552 0 0c0.0165586,0.0153759 0.0331172,0.0343 0.0496759,0.0484931l0 0 31.6163 31.226 0 0.00118276c0.0153759,0.0165586 0.0331172,0.0331172 0.0508586,0.0496759l0 0 0 0 0 0 0 0c1.21233,1.21469 1.82027,2.80314 1.82027,4.39395 -0.00118276,1.58844 -0.607938,3.17926 -1.82027,4.39395l0 0 0 0 0 0 0 0c-1.21351,1.21114 -2.80314,1.8179 -4.39277,1.8179 -1.58963,0 -3.18044,-0.606755 -4.39277,-1.8179l-0.00118276 0 0 0 0 0 0 0c-0.0153759,-0.0189241 -0.0343,-0.0354828 -0.0496759,-0.0520414l0 0c-4.48975,-4.48975 -27.1266,-26.7339 -31.6163,-31.2272l0 0c-0.0165586,-0.0177414 -0.0319345,-0.0331172 -0.0496759,-0.0508586zm31.1964 -73.1418l0 0 0 0 0 0 0 0c-1.715,0 -3.26914,-0.694279 -4.39395,-1.81672 -1.12244,-1.12835 -1.8179,-2.67895 -1.8179,-4.39513l-0.00236552 0 0 0 0 0 0.00236552 0c0,-1.71618 0.695462,-3.26914 1.8179,-4.39277 1.1248,-1.12244 2.67895,-1.82027 4.39395,-1.82027l0 0 0 0 0 0 0 0c0.0236552,0 0.0473103,0 0.0709655,0l0 0 44.4362 -0.2744 0 0c0.0224724,-0.00118276 0.0473103,-0.00118276 0.0709655,-0.00118276l0 0 0 0 0 0 0 0c1.71618,0 3.26914,0.695462 4.39277,1.81908 1.12362,1.1248 1.81908,2.67895 1.81908,4.39277l0 0 0 0 0 0 0 0c0,1.71618 -0.695462,3.26914 -1.81908,4.39277 -1.12362,1.1248 -2.67658,1.82027 -4.39277,1.82027l0 0 0 0 0 0 0 0c-0.0236552,0 -0.0484931,0 -0.0709655,0l0 0c-6.35023,0.00118276 -38.086,0.277948 -44.4362,0.275583l0 0c-0.0248379,0 -0.0473103,0 -0.0709655,0zm-76.8237 117.734l0 0 0 0 0 0 0 0c1.715,0 3.26914,0.694279 4.39158,1.8179 1.12362,1.12717 1.81908,2.67777 1.81908,4.39395l0.00118276 0 0 0 0 0 -0.00118276 0c0,1.715 -0.695462,3.26796 -1.81908,4.39277 -1.12244,1.12362 -2.67658,1.82027 -4.39158,1.82027l0 0 0 0 0 0 0 0c-0.0248379,0 -0.0484931,0 -0.0721483,0l0 0 -79.2673 0.2744 0 0c-0.0224724,0.00118276 -0.0484931,0.00118276 -0.0721483,0.00118276l0 0 0 0 0 0 0 0c-1.71618,0 -3.27033,-0.695462 -4.39158,-1.81908 -1.1248,-1.12362 -1.82027,-2.67777 -1.82027,-4.39277l0 0 0 0 0 0 0 0c0,-1.71618 0.695462,-3.26914 1.82027,-4.39277 1.12126,-1.1248 2.6754,-1.82027 4.39158,-1.82027l0 0 0 0 0 0 0 0c0.0236552,0 0.0496759,0 0.0721483,0l0 0c6.34787,-0.00118276 72.9183,-0.276766 79.2673,-0.275583l0 0c0.0248379,0 0.0473103,0 0.0721483,0zm-6.30765 19.4493l0 0 0 0 0 0 0 0c1.715,0 3.26678,0.694279 4.39158,1.8179 1.1248,1.12599 1.82145,2.67895 1.82145,4.39395l0 0 0 0 0 0 0 0c0,1.715 -0.696645,3.26914 -1.82145,4.39277 -1.1248,1.12362 -2.67658,1.82027 -4.39158,1.82027l0 0 0 0 0 0 0 0c-0.0248379,0 -0.0484931,0 -0.0709655,0l0 0 -66.6544 0.36429 0 0c-0.0236552,0.00118276 -0.0473103,0.00118276 -0.0709655,0.00118276l0 0 0 0 0 0 0 0c-1.715,0 -3.26796,-0.695462 -4.39158,-1.82027 -1.12599,-1.12244 -1.82263,-2.67777 -1.82263,-4.39158l0 0 0 0 0 0 0 0c0,-1.71618 0.696645,-3.27033 1.82263,-4.39277 1.12362,-1.1248 2.6754,-1.82027 4.39158,-1.82027l0 0 0 0 0 0 0 0c0.0236552,0 0.0473103,0 0.0709655,0l0 0c6.34787,-0.00118276 60.3053,-0.366655 66.6544,-0.365472l0 0c0.0236552,0 0.0461276,0 0.0709655,0z"/>
 </g>
</svg>
