<?xml version="1.0" encoding="UTF-8"?>
<!DOCTYPE svg PUBLIC "-//W3C//DTD SVG 1.1//EN" "http://www.w3.org/Graphics/SVG/1.1/DTD/svg11.dtd">
<!-- Creator: CorelDRAW -->
<svg xmlns="http://www.w3.org/2000/svg" xml:space="preserve" width="449px" height="354px" shape-rendering="geometricPrecision" text-rendering="geometricPrecision" image-rendering="optimizeQuality" fill-rule="evenodd" clip-rule="evenodd"
viewBox="0 0 449 354.474">
 <g id="Layer_x0020_1">
  <metadata id="CorelCorpID_0Corel-Layer"/>
  <path fill="#117734" d="M123.406 127.089c15.1727,0 27.4729,12.305 27.4729,27.4859 0,15.1715 -12.3002,27.4717 -27.4729,27.4717 -15.1762,0 -27.4989,-12.3002 -27.4989,-27.4717 0,-15.1809 12.3227,-27.4859 27.4989,-27.4859zm-32.328 119.889l125.168 -125.506 19.424 19.4275 -125.163 125.516 -19.4287 -19.437zm111.601 -41.0209c15.1774,0 27.4812,12.305 27.4812,27.4894 0,15.1727 -12.3038,27.4812 -27.4812,27.4812 -15.1715,0 -27.48,-12.3085 -27.48,-27.4812 0,-15.1845 12.3085,-27.4894 27.48,-27.4894zm221.414 -196.863l1.17567 -0.879095 1.23121 -0.734942 1.24893 -0.594334 1.32101 -0.487992 1.33046 -0.346203 1.31155 -0.216229 1.36236 -0.0768026 1.32928 0.0271763 1.28083 0.166603 1.26311 0.274126 1.1993 0.397011 1.14968 0.513987 1.0776 0.608513 1.00907 0.744395 1.21821 1.08233 1.55023 1.55141 1.09178 1.22175 0.730216 1.00907 0.622692 1.07406 0.509261 1.14968 0.397011 1.20285 0.283579 1.26783 0.161876 1.2891 0.0271763 1.30328 -0.0768026 1.34346 -0.229226 1.35763 -0.360382 1.32928 -0.473813 1.29856 -0.586063 1.26311 -0.744395 1.21703 -0.879095 1.18631 -1.22648 1.34346 -18.9454 18.9502 -42.5404 42.5451c-5.57351,5.57705 -12.715,11.466 -17.5216,17.6292l-0.360382 0.499808 -0.0543526 -0.00827105c-2.79916,3.30488 -6.97486,5.401 -11.6374,5.401 -4.66606,0 -8.84176,-2.09612 -11.6326,-5.40572l-0.0449 0.00472632 -0.315482 -0.428913c-0.121703,-0.148879 -0.238679,-0.306029 -0.347384,-0.464361 -26.2405,-26.2405 -26.7817,-26.6517 -53.0269,-52.8875l-1.20876 -1.33991 -0.883821 -1.1804 -0.730216 -1.22648 -0.603787 -1.26311 -0.483266 -1.2891 -0.347384 -1.334 -0.220955 -1.37536 -0.0945263 -1.32573 0.0449 -1.30328 0.158332 -1.29383 0.270582 -1.26665 0.414734 -1.20403 0.500989 -1.14613 0.616784 -1.0776 0.734942 -1.00434 1.09178 -1.21821 1.56441 -1.55496 1.20876 -1.08705 1.0008 -0.743213 1.0776 -0.613239 1.16267 -0.510442 1.19458 -0.395829 1.25838 -0.284761 1.2891 -0.161876 1.33046 -0.02245 1.35291 0.0850737 1.31155 0.212684 1.33046 0.346203 1.32101 0.486811 1.26665 0.590789 1.21348 0.744395 1.18158 0.866097 1.32928 1.21703 43.4963 45.1954 15.8261 -15.2258 36.8546 -36.8452 20.2901 -20.1731zm-186.114 312.22l2.82279 -0.0768026 2.68218 -0.203232 2.64674 -0.333205 2.59238 -0.464361 2.54748 -0.587245 2.49786 -0.711311 2.45296 -0.83065 2.39033 -0.941718 2.3348 -1.05515 2.27218 -1.16267 2.21428 -1.27611 2.13275 -1.36709 2.07367 -1.46988 1.99332 -1.56441 1.91652 -1.66839 1.83499 -1.74401 1.74874 -1.83972 1.66012 -1.91652 1.56796 -1.9886 1.46988 -2.06894 1.37063 -2.14693 1.27611 -2.20837 1.16386 -2.26863 1.05042 -2.33126 0.9429 -2.39388 0.833013 -2.44351 0.704221 -2.49786 0.586063 -2.54276 0.464361 -2.59711 0.337932 -2.63374 0.207958 -2.67746 0.0626237 -2.83224 -0.00472632 -0.842466 -0.02245 -0.938174 -0.0354474 -0.928721 -0.0638053 -0.923995 -0.06735 -0.933447 -0.0898 -0.901545 -0.103979 -0.915724 -0.116976 -0.910997 -0.135882 -0.910997 -0.153605 -0.887366 -0.161876 -0.883821 -0.176055 -0.888547 -0.198505 -0.883821 -0.211503 -0.866097 -0.216229 -0.864916 -2.67864 -9.6535 9.43727 -5.56406 1.45216 -0.914542 1.4238 -0.974803 1.38954 -1.00907 1.35173 -1.05161 1.31273 -1.09532 1.28083 -1.1355 1.24893 -1.18158 1.20285 -1.22175 1.16386 -1.25838 1.12723 -1.29383 1.0776 -1.32101 1.0457 -1.37063 0.992526 -1.39781 0.946445 -1.43444 0.906271 -1.46043 0.861371 -1.49233 0.802292 -1.52424 0.762118 -1.55023 0.707766 -1.57859 0.662866 -1.60931 0.599061 -1.63294 0.555342 -1.65421 0.504534 -1.67784 0.441911 -1.70384 0.384013 -1.72274 0.337932 -1.74874 0.270582 -1.77237 0.220955 -1.78537 0.148879 -1.80309 0.0945263 -1.82199 0.0307211 -1.85272 -0.0307211 -1.87162 -0.0945263 -1.84444 -0.163058 -1.82081 -0.216229 -1.81254 -0.280034 -1.79482 -0.342658 -1.75819 -0.395829 -1.74047 -0.456089 -1.72747 -0.509261 -1.69911 -0.563613 -1.66366 -0.622692 -1.64594 -0.675863 -1.62822 -0.725489 -1.59159 -0.779842 -1.56441 -0.821197 -1.53251 -0.883821 -1.51006 -0.919268 -1.47934 -0.970076 -1.43326 -1.02325 -1.41199 -1.05988 -1.37536 -1.10005 -1.33873 -1.14968 -1.2891 -1.18985 -1.26311 -1.23593 -1.22648 -1.27138 -1.18512 -1.30328 -1.13195 -1.34346 -1.09178 -1.38363 -1.05397 -1.41553 -1.01498 -1.44743 -0.955897 -1.48406 -0.915724 -9.67122 -5.51797 2.76844 -9.83428 0.230408 -0.869642 0.216229 -0.888547 0.203232 -0.901545 0.184326 -0.893274 0.171329 -0.906271 0.153605 -0.906271 0.139426 -0.914542 0.121703 -0.933447 0.113432 -0.923995 0.0898 -0.915724 0.0720763 -0.946445 0.0590789 -0.9429 0.0401737 -0.933447 0.0271763 -0.951171 0.00827105 -0.866097 -0.0756211 -2.83106 -0.198505 -2.68218 -0.339113 -2.63374 -0.459634 -2.59711 -0.590789 -2.54276 -0.707766 -2.49786 -0.829468 -2.44351 -0.941718 -2.39388 -1.05515 -2.33598 -1.16386 -2.27218 -1.27138 -2.2001 -1.37536 -2.14693 -1.46988 -2.06894 -1.56441 -1.9886 -1.65894 -1.91179 -1.75346 -1.83972 -1.83617 -1.75346 -1.91534 -1.65539 -1.99332 -1.57386 -2.07367 -1.46988 -2.1422 -1.37418 -2.20483 -1.26783 -2.26272 -1.16267 -2.34543 -1.05042 -2.39388 -0.951171 -2.43878 -0.821197 -2.50258 -0.712492 -2.54748 -0.590789 -2.59711 -0.464361 -2.64201 -0.333205 -2.68337 -0.203232 -2.83106 -0.06735 -0.811745 0 -0.892092 0.02245 -0.898 0.0401737 -0.892092 0.0543526 -0.888547 0.06735 -0.888547 0.0862553 -0.874368 0.0945263 -0.883821 0.108705 -0.874368 0.125247 -0.870824 0.140608 -0.851918 0.148879 -0.861371 0.176055 -0.856645 0.174874 -0.834195 0.190234 -0.837739 0.216229 -9.67595 2.57466 -5.46008 -9.53652 -0.915724 -1.48288 -0.955897 -1.43444 -1.01025 -1.41553 -1.05515 -1.38008 -1.09532 -1.34346 -1.13668 -1.29383 -1.1804 -1.27611 -1.22648 -1.23121 -1.25838 -1.18512 -1.29856 -1.14141 -1.33873 -1.10478 -1.37063 -1.06342 -1.40253 -1.01025 -1.44271 -0.964168 -1.47934 -0.925176 -1.51006 -0.883821 -1.52896 -0.820016 -1.56441 -0.771571 -1.59513 -0.725489 -1.61876 -0.672318 -1.64594 -0.621511 -1.66839 -0.558887 -1.70029 -0.510442 -1.72156 -0.454908 -1.74519 -0.397011 -1.76292 -0.342658 -1.78537 -0.278853 -1.80427 -0.216229 -1.83027 -0.158332 -1.84326 -0.0945263 -1.87162 -0.0366289 -1.87989 0.0366289 -1.8539 0.0945263 -1.83027 0.158332 -1.81727 0.219774 -1.79364 0.284761 -1.77237 0.342658 -1.74992 0.401737 -1.73101 0.459634 -1.70384 0.513987 -1.67312 0.571884 -1.65067 0.617966 -1.63176 0.680589 -1.59631 0.734942 -1.57386 0.779842 -1.54196 0.834195 -1.51006 0.883821 -1.47461 0.933447 -1.44743 0.978347 -1.41553 1.02325 -1.37536 1.07406 -1.334 1.11305 -1.29856 1.14968 -1.26665 1.20403 -1.22648 1.2442 -1.17685 1.27611 -1.14141 1.31628 -1.09532 1.35291 -1.05042 1.38836 -1.00552 1.42498 -0.96535 1.46516 -0.909816 1.49352 -5.53333 9.76102 -9.88745 -2.83106 -0.879095 -0.225682 -0.901545 -0.225682 -0.910997 -0.207958 -0.906271 -0.189053 -0.910997 -0.176055 -0.914542 -0.152424 -0.928721 -0.140608 -0.9429 -0.129974 -0.928721 -0.113432 -0.933447 -0.0850737 -0.964168 -0.0815289 -0.947626 -0.0590789 -0.964168 -0.0401737 -0.96535 -0.0271763 -0.869642 -0.00472632 -2.83224 0.0638053 -2.67864 0.206776 -2.63728 0.339113 -2.59238 0.464361 -2.54276 0.586063 -2.49786 0.707766 -2.44351 0.829468 -2.39506 0.941718 -2.3348 1.05042 -2.26863 1.16386 -2.20837 1.27611 -2.1422 1.37063 -2.06894 1.46988 -1.99332 1.56914 -1.92125 1.65894 -1.83972 1.74992 -1.73928 1.83499 -1.66484 1.91534 -1.56441 1.99332 -1.47343 2.07367 -1.37536 2.13748 -1.26783 2.20483 -1.16267 2.2769 -1.05988 2.33126 -0.936992 2.38915 -0.834195 2.44823 -0.708947 2.49431 -0.586063 2.55103 -0.464361 2.59357 -0.337932 2.63728 -0.206776 2.68218 -0.0720763 2.81807 0.0129974 0.825924 0.02245 0.936992 0.0366289 0.92045 0.0578974 0.914542 0.0720763 0.915724 0.0909816 0.901545 0.0992526 0.906271 0.116976 0.901545 0.1347 0.888547 0.144153 0.883821 0.167784 0.892092 0.174874 0.888547 0.190234 0.861371 0.20205 0.874368 0.220955 0.861371 2.67864 9.87446 -9.79765 5.42345 -1.52424 0.906271 -1.47461 0.955897 -1.44625 1.00198 -1.41671 1.05042 -1.37418 1.09532 -1.33991 1.14022 -1.30328 1.18631 -1.2572 1.22175 -1.21348 1.26311 -1.1804 1.30683 -1.13195 1.34346 -1.08705 1.38954 -1.0457 1.41081 -0.992526 1.45571 -0.951171 1.48406 -0.896818 1.52424 -0.848374 1.54669 -0.797566 1.58213 -0.744395 1.61404 -0.688861 1.63176 -0.635689 1.67312 -0.587245 1.69557 -0.522258 1.71329 -0.469087 1.74047 -0.405282 1.77119 -0.347384 1.78182 -0.293032 1.81254 -0.220955 1.82554 -0.166603 1.85744 -0.0957079 1.87162 -0.0354474 1.88934 0.0354474 1.90234 0.0992526 1.88462 0.163058 1.86689 0.229226 1.84444 0.293032 1.81609 0.356837 1.80427 0.410008 1.78064 0.469087 1.74992 0.531711 1.72156 0.595516 1.70856 0.640416 1.67784 0.698313 1.64121 0.757392 1.62349 0.803474 1.58686 0.860189 1.55968 0.906271 1.52424 0.955897 1.48761 1.00552 1.46161 1.0646 1.42853 1.10005 1.38836 1.14022 1.33991 1.19576 1.31628 1.23475 1.27138 1.27138 1.22175 1.30801 1.17685 1.35645 1.14495 1.39308 1.09651 1.42971 1.05042 1.46043 0.996071 1.49706 0.955897 1.53369 0.906271 9.77048 5.33837 -2.49786 9.7882 -0.203232 0.825924 -0.184326 0.829468 -0.171329 0.824742 -0.153605 0.824742 -0.144153 0.838921 -0.135882 0.851918 -0.121703 0.848374 -0.0992526 0.838921 -0.0898 0.856645 -0.0815289 0.869642 -0.06735 0.869642 -0.0496263 0.861371 -0.0354474 0.883821 -0.0189053 0.879095 -0.0129974 0.779842 0.0768026 2.81452 0.20205 2.68691 0.339113 2.63728 0.464361 2.58766 0.586063 2.54394 0.707766 2.50613 0.834195 2.44823 0.936992 2.39506 1.05988 2.3218 1.16386 2.2769 1.26665 2.20955 1.37536 2.13629 1.46988 2.07013 1.56914 1.99687 1.66366 1.91652 1.74519 1.83499 1.83499 1.74519 1.92007 1.65894 1.99332 1.56914 2.06422 1.46988 2.1422 1.37063 2.21428 1.27611 2.27218 1.16267 2.32653 1.05515 2.39388 0.938174 2.44823 0.834195 2.49786 0.703039 2.54748 0.595516 2.58766 0.459634 2.64674 0.337932 2.67864 0.198505 2.81334 0.0768026 0.874368 -0.0129974 0.96535 -0.02245 0.96535 -0.0460816 0.955897 -0.0578974 0.941718 -0.0768026 0.951171 -0.0945263 0.938174 -0.108705 0.928721 -0.126429 0.923995 -0.139426 0.925176 -0.161876 0.919268 -0.171329 0.906271 -0.190234 0.896818 -0.206776 0.901545 -0.225682 0.898 -0.233953 9.878 -2.78734 5.52388 9.72558 0.910997 1.49233 0.960624 1.46634 1.00907 1.42026 1.05042 1.38363 1.09651 1.35763 1.14495 1.32573 1.17685 1.27492 1.22175 1.23593 1.26665 1.20876 1.30328 1.1544 1.33518 1.10832 1.37418 1.06933 1.41671 1.03152 1.44625 0.978347 1.46988 0.929903 1.51124 0.874368 1.54669 0.838921 1.57268 0.784568 1.59631 0.730216 1.62822 0.675863 1.65421 0.627418 1.68139 0.576611 1.70029 0.513987 1.72274 0.451363 1.75346 0.405282 1.78064 0.337932 1.78655 0.288305 1.81609 0.220955 1.83972 0.163058 1.85744 0.0945263 1.87162 0.0354474 1.86217 -0.0354474 1.84799 -0.0945263 1.83145 -0.163058 1.80309 -0.216229 1.79009 -0.278853 1.76292 -0.339113 1.74047 -0.400555 1.72274 -0.451363 1.69438 -0.509261 1.67312 -0.563613 1.64594 -0.622692 1.62349 -0.671137 1.59159 -0.725489 1.56441 -0.771571 1.53723 -0.824742 1.50179 -0.87555 1.47343 -0.919268 1.44271 -0.973621 1.40726 -1.0197 1.37536 -1.05515 1.33873 -1.10832 1.29383 -1.14141 1.26311 -1.18985 1.22175 -1.22175 1.17685 -1.27138 1.14022 -1.29856 1.09651 -1.34346 1.05042 -1.38008 1.01379 -1.41553 0.955897 -1.44271 0.915724 -1.47461 5.45062 -9.50462 9.66768 2.54276 0.842466 0.211503 0.847192 0.194961 0.8531 0.174874 0.851918 0.167784 0.879095 0.15715 0.869642 0.139426 0.861371 0.131155 0.87555 0.103979 0.887366 0.103979 0.888547 0.0756211 0.883821 0.0732579 0.893274 0.0496263 0.905089 0.0401737 0.902726 0.02245 0.797566 0.00945263z"/>
 </g>
</svg>
