<?xml version="1.0" encoding="UTF-8"?>
<!DOCTYPE svg PUBLIC "-//W3C//DTD SVG 1.1//EN" "http://www.w3.org/Graphics/SVG/1.1/DTD/svg11.dtd">
<!-- Creator: CorelDRAW -->
<svg xmlns="http://www.w3.org/2000/svg" xml:space="preserve" width="319px" height="272px" shape-rendering="geometricPrecision" text-rendering="geometricPrecision" image-rendering="optimizeQuality" fill-rule="evenodd" clip-rule="evenodd"
viewBox="0 0 319 271.741">
 <defs>
   <linearGradient id="id0" gradientUnits="userSpaceOnUse" x1="78.1077" y1="54.1071" x2="241.842" y2="217.842">
    <stop offset="0" stop-color="#00FF66"/>
    <stop offset="0.25098" stop-color="#00BF4E"/>
    <stop offset="1" stop-color="#007F35"/>
   </linearGradient>
 </defs>
 <g id="Layer_x0020_1">
  <metadata id="CorelCorpID_0Corel-Layer"/>
  <path fill="url(#id0)" d="M187.025 269.349l-46.8706 0 -70.5864 0c-12.6147,0 -22.9349,-10.3226 -22.9349,-22.9326l0 -124.38 1.25591 -0.158319 2.22946 -0.387526 0.849485 -0.192581 2.91944 -0.5742 4.03476 -1.1295 3.88353 -1.41896 3.71576 -1.70488 3.52672 -1.9778 3.31287 -2.23418 3.09784 -2.48229 1.74741 -1.66943 0 113.733c0,9.3148 7.62056,16.9377 16.9377,16.9377l93.0204 0 0 0.00236296 45.8722 0c9.31716,0 16.9389,-7.62528 16.9389,-16.9401l0 -45.2779 -0.00118148 0 0 -61.6722 3.54326 1.9908 3.7642 1.72969 3.93079 1.44141 4.09265 1.1484 4.22852 0.831763 4.35021 0.511581 4.466 0.171315 2.19637 -0.093337 0 0.344993 0 53.735 0 69.7157c0,12.6135 -10.3202,22.9326 -22.9337,22.9326l-70.5876 0zm131.947 -189.858l0.0118148 0 -0.0118148 -0.0248111 -0.00118148 -0.0815222 -0.0378074 0c-21.1083,-44.0858 -33.0779,-75.7365 -89.3885,-76.7868l-10.9641 0 -52.8382 0 -12.1704 0 -52.8394 0 -10.3214 0c-56.3283,1.05034 -68.2884,32.7199 -89.4086,76.827l-0.0248111 0 -0.00118148 0.0543481 -0.00590741 0.0118148 0.00590741 0c-0.00354444,0.185493 -0.00945185,0.370985 -0.00945185,0.557659 0,18.6284 17.9396,33.7348 40.0593,33.7348 20.1643,0 36.8504,-12.5532 39.6458,-28.8825l1.05388 0c2.80011,16.2383 18.9262,28.697 38.3958,28.697 19.4696,0 35.5969,-12.4587 38.3958,-28.697l0.803407 0c2.89817,16.1839 19.2369,28.5848 38.9534,28.5848 19.7166,0 36.0576,-12.4008 38.9546,-28.5848l0.86957 0c2.81311,16.6081 19.7567,29.3823 40.2354,29.3823 22.4446,0 40.6477,-15.3451 40.6477,-34.2653 0,-0.174859 -0.00472593,-0.3509 -0.00945185,-0.526941z"/>
 </g>
</svg>
