<?xml version="1.0" encoding="UTF-8"?>
<!DOCTYPE svg PUBLIC "-//W3C//DTD SVG 1.1//EN" "http://www.w3.org/Graphics/SVG/1.1/DTD/svg11.dtd">
<!-- Creator: CorelDRAW 2021 (64-Bit Оценочная версия) -->
<svg xmlns="http://www.w3.org/2000/svg" xml:space="preserve" width="7.318mm" height="5.9469mm" version="1.1" shape-rendering="geometricPrecision" text-rendering="geometricPrecision" image-rendering="optimizeQuality" fill-rule="evenodd" clip-rule="evenodd"
viewBox="0 0 2.57 2.09"
 xmlns:xlink="http://www.w3.org/1999/xlink"
 xmlns:xodm="http://www.corel.com/coreldraw/odm/2003">
 <g id="Слой_x0020_1">
  <metadata id="CorelCorpID_0Corel-Layer"/>
  <path fill="#FEFEFE" fill-rule="nonzero" d="M2.57 0.25c-0.09,0.04 -0.2,0.07 -0.3,0.08 0.11,-0.07 0.19,-0.17 0.23,-0.29 -0.1,0.06 -0.21,0.1 -0.34,0.13 -0.1,-0.1 -0.23,-0.17 -0.39,-0.17 -0.29,0 -0.53,0.24 -0.53,0.53 0,0.04 0,0.08 0.01,0.12 -0.44,-0.02 -0.83,-0.23 -1.09,-0.55 -0.05,0.08 -0.07,0.17 -0.07,0.27 0,0.18 0.09,0.34 0.23,0.44 -0.09,-0 -0.17,-0.03 -0.24,-0.07l0 0.01c0,0.26 0.18,0.47 0.42,0.52 -0.04,0.01 -0.09,0.02 -0.14,0.02 -0.03,0 -0.07,-0 -0.1,-0.01 0.07,0.21 0.26,0.36 0.49,0.37 -0.18,0.14 -0.41,0.23 -0.66,0.23 -0.04,0 -0.08,-0 -0.13,-0.01 0.23,0.15 0.51,0.24 0.81,0.24 0.97,0 1.5,-0.8 1.5,-1.5 0,-0.02 -0,-0.05 -0,-0.07 0.1,-0.07 0.19,-0.17 0.26,-0.27z"/>
 </g>
</svg>
