<?xml version="1.0" encoding="UTF-8"?>
<!DOCTYPE svg PUBLIC "-//W3C//DTD SVG 1.1//EN" "http://www.w3.org/Graphics/SVG/1.1/DTD/svg11.dtd">
<!-- Creator: CorelDRAW 2021 (64-Bit Оценочная версия) -->
<svg xmlns="http://www.w3.org/2000/svg" xml:space="preserve" width="19.1064mm" height="19.1062mm" version="1.1" shape-rendering="geometricPrecision" text-rendering="geometricPrecision" image-rendering="optimizeQuality" fill-rule="evenodd" clip-rule="evenodd"
viewBox="0 0 20.64 20.64"
 xmlns:xlink="http://www.w3.org/1999/xlink"
 xmlns:xodm="http://www.corel.com/coreldraw/odm/2003">
 <g id="Слой_x0020_1">
  <metadata id="CorelCorpID_0Corel-Layer"/>
  <path fill="#D9DADA" d="M10.32 0c5.7,0 10.32,4.62 10.32,10.32 0,5.7 -4.62,10.32 -10.32,10.32 -5.7,0 -10.32,-4.62 -10.32,-10.32 0,-5.7 4.62,-10.32 10.32,-10.32zm1.87 14.84l0 0 0 0 0 0 0 0c0,0.52 -0.21,0.98 -0.55,1.32 -0.34,0.34 -0.81,0.55 -1.32,0.55l0 0 0 0 0 0 0 -0c-0.52,-0 -0.98,-0.21 -1.32,-0.55 -0.34,-0.34 -0.55,-0.81 -0.55,-1.32l-0 0 0 0 0 0 0 0c0,-0.01 -0,-0.01 -0,-0.02l0 0 0 -2.63 -2.63 -0 0 0c-0.01,0 -0.01,0 -0.02,0l0 0 0 0 0 0 0 0c-0.52,0 -0.98,-0.21 -1.32,-0.55 -0.34,-0.34 -0.55,-0.81 -0.55,-1.32l-0 0 0 0 0 0 0 0c0,-0.52 0.21,-0.98 0.55,-1.32 0.34,-0.34 0.81,-0.55 1.32,-0.55l0 -0 0 0 0 0 0 0c0.01,0 0.01,-0 0.02,0l0 0 2.63 0 -0 -2.63 0 0c0,-0.01 -0,-0.01 0,-0.02l-0 0 0 0 0 0 0 0c-0,-0.52 0.21,-0.98 0.55,-1.32 0.34,-0.34 0.81,-0.55 1.32,-0.55l0 -0 0 0 0 0 0 0c0.52,0 0.98,0.21 1.32,0.55 0.34,0.34 0.55,0.81 0.55,1.32l0 0 0 0 0 0 0 0c0,0.01 0,0.01 0,0.02l0 0 0 2.63 2.63 -0 0 0c0.01,0 0.01,0 0.02,0l-0 -0 0 0 0 0 0 0c0.52,0 0.98,0.21 1.32,0.55 0.34,0.34 0.55,0.81 0.55,1.32l0 0 0 0 0 0 -0 0c-0,0.52 -0.21,0.98 -0.55,1.32 -0.34,0.34 -0.81,0.55 -1.32,0.55l0 0 0 0 0 0 0 0c-0.01,0 -0.01,0 -0.02,0l0 0 -2.63 0 -0 2.63 0 0c0,0.01 0,0.01 0,0.02z"/>
 </g>
</svg>
