<?xml version="1.0" encoding="UTF-8"?>
<!DOCTYPE svg PUBLIC "-//W3C//DTD SVG 1.1//EN" "http://www.w3.org/Graphics/SVG/1.1/DTD/svg11.dtd">
<!-- Creator: CorelDRAW -->
<svg xmlns="http://www.w3.org/2000/svg" xml:space="preserve" width="295px" height="295px" shape-rendering="geometricPrecision" text-rendering="geometricPrecision" image-rendering="optimizeQuality" fill-rule="evenodd" clip-rule="evenodd"
viewBox="0 0 295 295">
 <defs>
   <linearGradient id="id0" gradientUnits="userSpaceOnUse" x1="67.1609" y1="66.8895" x2="229.187" y2="228.915">
    <stop offset="0" stop-color="#00FF66"/>
    <stop offset="0.25098" stop-color="#00BF4E"/>
    <stop offset="1" stop-color="#007F35"/>
   </linearGradient>
 </defs>
 <g id="Layer_x0020_1">
  <metadata id="CorelCorpID_0Corel-Layer"/>
  <path fill="url(#id0)" d="M46.5699 293.582l0 0 0 0 0 0 0 0c-11.6018,0 -22.1073,-4.71056 -29.7136,-12.3086 -7.60274,-7.60038 -12.3086,-18.1106 -12.3086,-29.7218l-0.00472 0 0 0 0 0 0.00472 0c0,-11.6029 4.70584,-22.1073 12.3086,-29.7148 7.60038,-7.60156 18.1118,-12.3086 29.7136,-12.3086l0 -0.00354 0 0 0.00236 0 0 0.00354c0.16284,0 0.32332,0.00236 0.4838,0.00236l0 0c67.4004,0.02124 134.835,0.02124 202.235,0l0 0c0.16048,0 0.31978,-0.00236 0.48498,-0.00236l0 -0.00354 0.00354 0 0 0 0 0.00354c11.5994,0 22.1097,4.70702 29.7112,12.3086 7.60274,7.60864 12.3086,18.1118 12.3086,29.7124l0.00472 0 0 0 0 0 -0.00472 0c0,11.6136 -4.70584,22.1226 -12.3086,29.7242 -7.60864,7.59802 -18.1118,12.3086 -29.7112,12.3086l0 0 0 0 0 0 0 0c-0.16874,0 -0.32804,0 -0.48852,0l0 0c-67.411,0.02124 -134.826,0.0177 -202.235,0l0 0c-0.16048,0 -0.32096,0 -0.48616,0zm101.604 -291.381c48.8744,0 88.5094,39.635 88.5094,88.5094 0,48.8744 -39.635,88.5083 -88.5094,88.5083 -48.8744,0 -88.5094,-39.6338 -88.5094,-88.5083 0,-48.8744 39.635,-88.5094 88.5094,-88.5094z"/>
 </g>
</svg>
