<?xml version="1.0" encoding="UTF-8"?>
<!DOCTYPE svg PUBLIC "-//W3C//DTD SVG 1.1//EN" "http://www.w3.org/Graphics/SVG/1.1/DTD/svg11.dtd">
<!-- Creator: CorelDRAW -->
<svg xmlns="http://www.w3.org/2000/svg" xml:space="preserve" width="83px" height="83px" shape-rendering="geometricPrecision" text-rendering="geometricPrecision" image-rendering="optimizeQuality" fill-rule="evenodd" clip-rule="evenodd"
viewBox="0 0 83 83">
 <g id="Layer_x0020_1">
  <metadata id="CorelCorpID_0Corel-Layer"/>
  <path fill="#B2B2B2" d="M14.8404 39.2756c-1.66119,0.00118571 -3.12199,0.8549 -3.96977,2.14733l-0.00118571 0 -7.28266 6.82734 -0.0118571 -44.4975c0,-0.0794429 0.0652143,-0.144657 0.144657,-0.144657l75.53 -0.0201571c0.0794429,0 0.144657,0.0640286 0.144657,0.143471l0.0118571 43.8762 -18.6311 -21.8077 -0.00118571 0c-0.7387,-1.66237 -2.40463,-2.82437 -4.3409,-2.82437 -2.01334,0.00118571 -3.73381,1.25686 -4.4239,3.02594l-21.8183 26.228 -11.2299 -10.5659 -0.00118571 0c-0.818143,-1.4276 -2.3572,-2.38803 -4.11917,-2.38803zm-14.7894 12.2887l0.00711429 27.7184c0.00118571,2.02401 1.65763,3.68046 3.68283,3.68046l75.53 -0.0201571c2.0252,-0.00118571 3.68046,-1.65763 3.68046,-3.68283l-0.00711429 -27.5121 -0.0130429 -48.0167c-0.00118571,-2.0252 -1.65763,-3.68164 -3.68283,-3.68046l-75.53 0.0201571c-2.0252,0 -3.68046,1.65763 -3.68046,3.68283l0.0130429 47.8104z"/>
 </g>
</svg>
