<?xml version="1.0" encoding="UTF-8"?>
<!DOCTYPE svg PUBLIC "-//W3C//DTD SVG 1.1//EN" "http://www.w3.org/Graphics/SVG/1.1/DTD/svg11.dtd">
<!-- Creator: CorelDRAW -->
<svg xmlns="http://www.w3.org/2000/svg" xml:space="preserve" width="213px" height="83px" shape-rendering="geometricPrecision" text-rendering="geometricPrecision" image-rendering="optimizeQuality" fill-rule="evenodd" clip-rule="evenodd"
viewBox="0 0 213 82.8333">
 <g id="Layer_x0020_1">
  <metadata id="CorelCorpID_0Corel-Layer"/>
  <g id="_223933224">
   <path id="_223932288" fill="#B2B2B2" d="M31.5453 14.2426l-8.08335 0.00118333 -5.44925 20.9687 -5.67882 -20.9651 -8.41587 0.00236667c1.68507,4.94515 3.44468,9.92107 5.12975,14.8733 2.56428,7.44435 4.1677,13.0569 4.8919,16.8909l0.00473333 21.6242 7.99815 -0.00236667 -0.00591667 -21.6242 9.60867 -31.769zm21.3828 40.5031l-0.00473333 -13.9385c-0.00118333,-4.25053 -0.732483,-7.35678 -2.2436,-9.372 -1.99865,-2.71457 -4.80078,-4.07658 -8.41113,-4.0754 -3.59142,0.00118333 -6.40302,1.36438 -8.39575,4.08013 -1.5336,2.01522 -2.25543,5.12265 -2.25425,9.37318l0.00355 13.9385c0.00118333,4.22923 0.7242,7.36152 2.26017,9.36017 1.99392,2.70983 4.80552,4.07185 8.39693,4.07067 3.61035,-0.00118333 6.4113,-1.36438 8.40995,-4.0754 1.50993,-1.99865 2.23887,-5.13212 2.23887,-9.36135zm-7.21478 1.35965c0.00118333,3.68135 -1.11233,5.52262 -3.4364,5.52262 -2.32762,0.00118333 -3.4435,-1.8389 -3.44468,-5.52025l-0.00473333 -16.7406c-0.00118333,-3.68253 1.1147,-5.51433 3.44232,-5.51552 2.32407,0 3.43758,1.8318 3.43877,5.51433l0.00473333 16.7394zm33.88 11.515l-0.01065 -39.7872 -7.21123 0.00236667 0.00828333 30.4093c-1.60105,2.2578 -3.11453,3.37605 -4.55465,3.37723 -0.970333,0 -1.5336,-0.570367 -1.6898,-1.68862 -0.08875,-0.2343 -0.0899333,-1.11352 -0.0899333,-2.80687l-0.00828333 -29.2899 -7.18757 0.00236667 0.00828333 31.4613c0.00118333,2.80568 0.246133,4.71203 0.644917,5.91548 0.7171,2.0164 2.31815,2.96188 4.64222,2.9607 2.62818,-0.00118333 5.36405,-1.60223 8.236,-4.89663l0.00118333 4.34165 7.21123 -0.00118333z"/>
   <path id="_223932888" fill="#B2B2B2" d="M209.593 41.6545c0.00236667,9.20397 -0.00355,18.9688 -2.06255,27.9077 -1.4413,6.27403 -6.57342,10.9056 -12.7563,11.6014 -14.6402,1.63773 -29.4591,1.65075 -44.2058,1.64602 -14.7514,0.0130167 -29.5668,0.00828333 -44.2058,-1.62117 -6.1841,-0.693433 -11.3198,-5.32263 -12.7623,-11.5955 -2.05782,-8.93772 -2.06018,-18.7026 -2.06255,-27.9066 -0.00236667,-9.21343 0.0165667,-18.9617 2.07202,-27.9113 1.43893,-6.27167 6.57223,-10.9068 12.7552,-11.5967 14.639,-1.64483 29.4555,-1.65193 44.207,-1.65193 14.7455,-0.0071 29.5656,-0.00828333 44.2058,1.62827 6.1841,0.686333 11.3198,5.3179 12.7611,11.5896 2.05663,8.94837 2.0519,18.6967 2.05427,27.9101zm-84.3859 -19.8386l-0.00236667 -7.44317 -24.8796 0.0071 0.00236667 7.44317 8.39457 -0.00236667 0.0118333 45.3998 7.93425 -0.00236667 -0.0118333 -45.3998 8.55077 -0.00236667zm14.4248 45.3962l-0.00118333 -4.29195c-2.83053,3.2518 -5.52498,4.83983 -8.14962,4.84102 -2.3004,0 -3.88607,-0.932467 -4.59607,-2.93112 -0.392867,-1.19635 -0.6319,-3.07075 -0.6319,-5.85395l-0.00946667 -31.1347 7.13195 -0.00118333 0.00828333 28.9893c0,1.66732 0,2.54298 0.06745,2.77492 0.172767,1.10405 0.712367,1.66495 1.66732,1.66495 1.43065,0 2.93467,-1.10642 4.51087,-3.33582l-0.00828333 -30.0957 7.14142 -0.00118333 0.01065 39.3731 -7.14142 0.00236667zm27.1078 -11.2582c0.00118333,3.55592 -1.04607,5.30725 -3.1027,5.30725 -1.17268,0.00118333 -2.36548,-0.559717 -3.55828,-1.74897l-0.00591667 -24.0015c1.19162,-1.17268 2.38442,-1.73595 3.5571,-1.73595 2.05663,-0.00118333 3.10507,1.82352 3.10507,5.37352l0.00473333 16.8057zm7.13195 -0.562083l-0.00473333 -15.6851c-0.00118333,-3.72158 -0.24495,-6.32965 -0.721833,-7.91532 -0.9514,-2.94768 -2.85893,-4.44105 -5.70367,-4.43987 -2.6199,0 -5.0623,1.44012 -7.3698,4.27065l-0.00473333 -17.2577 -7.13195 0.00118333 0.0142 52.8429 7.13195 -0.00236667 -0.00118333 -3.81388c2.3856,2.9465 4.83392,4.3594 7.37217,4.35822 2.84473,0 4.75227,-1.49692 5.70248,-4.42803 0.4757,-1.66732 0.718283,-4.29077 0.7171,-7.9307zm19.7889 -12.5185l-7.12958 0.00118333 -0.00118333 -3.63993c-0.00118333,-3.64112 1.1928,-5.467 3.57722,-5.467 2.3572,-0.00118333 3.55237,1.82352 3.55237,5.46463l0.00118333 3.64112zm7.14142 11.7257l0 -1.03897 -7.2846 0.00236667c0,2.86485 -0.0852,4.43987 -0.150283,4.828 -0.410617,1.90753 -1.43893,2.86367 -3.19263,2.86367 -2.44477,0.00118333 -3.63875,-1.81405 -3.63993,-5.46345l-0.00236667 -6.97457 14.2686 -0.00355 -0.00236667 -8.15435c-0.00118333,-4.2103 -0.721833,-7.28815 -2.21638,-9.27852 -1.99747,-2.69682 -4.8351,-4.03517 -8.41587,-4.03517 -3.63993,0.00118333 -6.48703,1.34072 -8.5413,4.0399 -1.51822,1.99037 -2.20455,5.06822 -2.20337,9.2797l0.00355 13.7929c0.00118333,4.17598 0.779817,7.28815 2.29448,9.2513 2.059,2.6909 4.90018,4.03753 8.63833,4.03635 3.72395,-0.00118333 6.64915,-1.41527 8.6265,-4.27302 0.860283,-1.26025 1.42118,-2.698 1.6614,-4.27302 0.0662667,-0.72065 0.157383,-2.30513 0.1562,-4.59962z"/>
  </g>
 </g>
</svg>
