<?xml version="1.0" encoding="UTF-8"?>
<!DOCTYPE svg PUBLIC "-//W3C//DTD SVG 1.1//EN" "http://www.w3.org/Graphics/SVG/1.1/DTD/svg11.dtd">
<!-- Creator: CorelDRAW -->
<svg xmlns="http://www.w3.org/2000/svg" xml:space="preserve" width="106px" height="71px" shape-rendering="geometricPrecision" text-rendering="geometricPrecision" image-rendering="optimizeQuality" fill-rule="evenodd" clip-rule="evenodd"
viewBox="0 0 106 70.6667">
 <g id="Layer_x0020_1">
  <metadata id="CorelCorpID_0Corel-Layer"/>
  <path fill="#B2B2B2" d="M90.1 2.72773l0.744356 -0.548844 0.776156 -0.4664 0.787933 -0.375711 0.827978 -0.300333 0.842111 -0.2226 0.8268 -0.1378 0.853889 -0.0471111 0.8374 0.0153111 0.809133 0.106 0.792644 0.173133 0.756133 0.248511 0.721978 0.323889 0.6784 0.383956 0.639533 0.468756 0.769089 0.684289 0.971667 0.970489 0.687822 0.7738 0.456978 0.634822 0.395733 0.677222 0.318 0.723156 0.249689 0.757311 0.181378 0.798533 0.100111 0.812667 0.0141333 0.820911 -0.0459333 0.843289 -0.141333 0.855067 -0.226133 0.839756 -0.302689 0.817378 -0.366289 0.792644 -0.469933 0.767911 -0.553556 0.747889 -0.7738 0.843289 -11.9297 11.9344 -26.7827 26.7921c-3.51802,3.51213 -8.01242,7.22096 -11.037,11.1029l-0.227311 0.313289 -0.0341556 -0.00353333c-1.76313,2.07996 -4.39193,3.40024 -7.32813,3.40024 -2.94091,0 -5.56971,-1.32029 -7.32696,-3.40378l-0.0270889 0.00353333 -0.200222 -0.269711c-0.0742,-0.0977556 -0.149578,-0.191978 -0.219067,-0.292089 -16.5242,-16.5242 -16.8611,-16.7857 -33.3912,-33.3064l-0.762022 -0.843289 -0.554733 -0.744356 -0.456978 -0.771444 -0.383956 -0.793822 -0.305044 -0.813844 -0.215533 -0.842111 -0.138978 -0.864489 -0.0612444 -0.833867 0.0270889 -0.817378 0.100111 -0.813844 0.170778 -0.803244 0.263822 -0.7526 0.314467 -0.723156 0.386311 -0.681933 0.4664 -0.632467 0.683111 -0.767911 0.986978 -0.982267 0.758489 -0.6784 0.634822 -0.468756 0.676044 -0.386311 0.733756 -0.321533 0.753778 -0.248511 0.790289 -0.176667 0.807956 -0.106 0.840933 -0.00942222 0.850356 0.0482889 0.8268 0.134267 0.839756 0.219067 0.830333 0.300333 0.796178 0.3816 0.765556 0.4664 0.743178 0.542956 0.839756 0.771444 27.388 28.4563 9.96518 -9.58711 23.2093 -23.2046 12.773 -12.7035z"/>
 </g>
</svg>
