<?xml version="1.0" encoding="UTF-8"?>
<!DOCTYPE svg PUBLIC "-//W3C//DTD SVG 1.1//EN" "http://www.w3.org/Graphics/SVG/1.1/DTD/svg11.dtd">
<!-- Creator: CorelDRAW 2021 (64-Bit Оценочная версия) -->
<svg xmlns="http://www.w3.org/2000/svg" xml:space="preserve" width="9.3607mm" height="8.4666mm" version="1.1" shape-rendering="geometricPrecision" text-rendering="geometricPrecision" image-rendering="optimizeQuality" fill-rule="evenodd" clip-rule="evenodd"
viewBox="0 0 4.71 4.26"
 xmlns:xlink="http://www.w3.org/1999/xlink"
 xmlns:xodm="http://www.corel.com/coreldraw/odm/2003">
 <g id="Слой_x0020_1">
  <metadata id="CorelCorpID_0Corel-Layer"/>
  <path fill="#C5C6C6" d="M2.28 0.68l-0 -0 0 -0c-0.07,-0.07 -0.14,-0.13 -0.22,-0.18 -0.07,-0.05 -0.14,-0.1 -0.21,-0.13 -0.36,-0.19 -0.7,-0.2 -0.98,-0.09l-0 0 -0 0 0 -0c-0.03,0.01 -0.06,0.03 -0.09,0.04 -0.03,0.02 -0.06,0.03 -0.09,0.05 -0.14,0.1 -0.26,0.23 -0.35,0.4l-0 0c-0.02,0.03 -0.03,0.06 -0.05,0.1 -0.01,0.03 -0.03,0.07 -0.04,0.11 -0.06,0.19 -0.08,0.4 -0.05,0.63l0 0c0.01,0.1 0.04,0.21 0.07,0.32 0.03,0.11 0.08,0.22 0.14,0.33 0.29,0.59 0.89,1.21 1.93,1.75 0.2,-0.1 0.38,-0.21 0.54,-0.32 0.17,-0.11 0.33,-0.23 0.47,-0.34 0.72,-0.59 1.05,-1.21 1.12,-1.75l0 -0 0 0c0.01,-0.04 0.01,-0.09 0.01,-0.13 0,-0.04 0,-0.09 0,-0.13 -0.01,-0.21 -0.06,-0.41 -0.14,-0.58l0 0 -0 -0 -0 -0c-0.02,-0.03 -0.03,-0.06 -0.05,-0.09 -0.02,-0.03 -0.04,-0.06 -0.06,-0.09l-0 0c-0.11,-0.14 -0.25,-0.25 -0.41,-0.31l0 0 -0 -0 -0 -0c-0.05,-0.02 -0.11,-0.04 -0.17,-0.05 -0.06,-0.01 -0.12,-0.02 -0.18,-0.02 -0.32,-0.01 -0.7,0.13 -1.06,0.48l-0.07 0.07 -0.07 -0.07zm-0.1 -0.35c0.05,0.04 0.11,0.08 0.17,0.13 0.39,-0.34 0.78,-0.48 1.14,-0.47 0.07,0 0.15,0.01 0.22,0.03 0.07,0.01 0.14,0.04 0.2,0.06l0 -0 0 0 0 0c0.19,0.08 0.36,0.21 0.49,0.38l-0 0c0.03,0.03 0.05,0.07 0.07,0.1 0.02,0.03 0.04,0.07 0.06,0.11l0 0 0 0c0.1,0.19 0.16,0.42 0.16,0.67 0,0.05 0,0.1 -0,0.15 -0,0.05 -0.01,0.1 -0.01,0.15l0 0 -0 0c-0.08,0.58 -0.43,1.26 -1.19,1.88 -0.15,0.12 -0.31,0.24 -0.49,0.36 -0.18,0.12 -0.37,0.23 -0.58,0.34l-0 -0 -0 0 0 0 -0.02 0.01 -0.05 0.02 -0.05 -0.02 -0.02 -0.01c-1.09,-0.57 -1.73,-1.23 -2.04,-1.86 -0.06,-0.12 -0.11,-0.25 -0.15,-0.37 -0.04,-0.12 -0.06,-0.24 -0.08,-0.35l-0 -0c-0.03,-0.26 -0.01,-0.51 0.05,-0.72 0.01,-0.04 0.03,-0.08 0.04,-0.12 0.02,-0.04 0.03,-0.08 0.05,-0.12l0 0 0 -0 0 -0 0 -0c0.1,-0.2 0.24,-0.36 0.41,-0.48 0.03,-0.02 0.07,-0.04 0.1,-0.06 0.03,-0.02 0.07,-0.04 0.11,-0.05l0 -0 0 -0 0 0c0.33,-0.14 0.74,-0.12 1.15,0.1 0.08,0.04 0.16,0.09 0.24,0.15z"/>
 </g>
</svg>
