<?xml version="1.0" encoding="UTF-8"?>
<!DOCTYPE svg PUBLIC "-//W3C//DTD SVG 1.1//EN" "http://www.w3.org/Graphics/SVG/1.1/DTD/svg11.dtd">
<!-- Creator: CorelDRAW -->
<svg xmlns="http://www.w3.org/2000/svg" xml:space="preserve" width="272px" height="272px" shape-rendering="geometricPrecision" text-rendering="geometricPrecision" image-rendering="optimizeQuality" fill-rule="evenodd" clip-rule="evenodd"
viewBox="0 0 272 272">
 <g id="Layer_x0020_1">
  <metadata id="CorelCorpID_0Corel-Layer"/>
  <path fill="#CCCCCC" d="M136.077 4.14268c73.6375,0 133.356,59.7158 133.356,133.353 0,73.6387 -59.7182,133.356 -133.356,133.356 -73.6387,0 -133.356,-59.717 -133.356,-133.356 0,-73.6375 59.717,-133.353 133.356,-133.353zm24.1501 191.736l0 0 0 0 0 0 0 0c0,6.66755 -2.71409,12.7059 -7.07318,17.0733 -4.36974,4.3721 -10.4058,7.06963 -17.0851,7.07082l0 0.00354783 0 0 0 0 0 -0.00354783c-6.664,-0.00118261 -12.7,-2.69871 -17.0733,-7.07082 -4.36619,-4.36737 -7.06609,-10.4058 -7.06609,-17.0733l-0.00118261 0 0 0 0 0 0.00118261 0c0.00118261,-0.0934261 -0.00118261,-0.184487 -0.00118261,-0.283826l0 0 0.00827826 -33.9421 -33.9622 -0.00946087 0 0c-0.0957913,0 -0.18567,0.00118261 -0.279096,0l0 0 0 0 0 0 0 0c-6.66755,0.00118261 -12.7048,-2.71172 -17.0757,-7.06727 -4.36974,-4.37447 -7.06845,-10.4058 -7.06963,-17.0899l-0.00354783 0 0 0 0 0 0.00354783 0c0.00118261,-6.65927 2.6999,-12.6989 7.06963,-17.0698 4.36974,-4.36619 10.4081,-7.06845 17.0757,-7.06845l0 -0.00236522 0 0 0 0 0 0.00236522c0.0934261,0 0.183304,-0.00118261 0.283826,0l0 0 33.9574 0.00591304 -0.00709565 -33.9598 0 0c0,-0.0969739 -0.00118261,-0.186852 0,-0.280278l-0.00354783 0 0 0 0 0 0.00354783 0c-0.00118261,-6.66873 2.6999,-12.7059 7.06609,-17.0745 4.37329,-4.3721 10.4093,-7.06963 17.0733,-7.06963l0 -0.00473043 0 0 0 0 0 0.00473043c6.67937,0 12.7154,2.69753 17.0851,7.06963 4.3591,4.36856 7.07318,10.4058 7.07318,17.0745l0 0 0 0 0 0 0 0c0,0.0934261 0,0.183304 0,0.282643l0 0 0.00473043 33.9574 33.9468 -0.00591304 0 0c0.0981565,0 0.1904,0 0.283826,0l-0.00118261 -0.00236522 0 0 0 0 0.00118261 0.00236522c6.66755,0 12.7048,2.70226 17.071,7.06845 4.37329,4.37092 7.07082,10.4105 7.072,17.0698l0.00473043 0 0 0 0 0 -0.00473043 0c-0.00118261,6.6841 -2.69871,12.7154 -7.072,17.0899 -4.36737,4.35555 -10.4034,7.06727 -17.071,7.06727l0 0 0 0 0 0 0 0c-0.0946087,0 -0.18567,0.00236522 -0.286191,0.00118261l0 0 -33.9468 0.00827826 -0.00236522 33.9444 0 0c0,0.0969739 0,0.188035 0,0.281461z"/>
 </g>
</svg>
