<?xml version="1.0" encoding="UTF-8"?>
<!DOCTYPE svg PUBLIC "-//W3C//DTD SVG 1.1//EN" "http://www.w3.org/Graphics/SVG/1.1/DTD/svg11.dtd">
<!-- Creator: CorelDRAW -->
<svg xmlns="http://www.w3.org/2000/svg" xml:space="preserve" width="413px" height="343px" shape-rendering="geometricPrecision" text-rendering="geometricPrecision" image-rendering="optimizeQuality" fill-rule="evenodd" clip-rule="evenodd"
viewBox="0 0 413 342.2">
 <g id="Layer_x0020_1">
  <metadata id="CorelCorpID_0Corel-Layer"/>
  <path fill="#117734" d="M43.8441 338.488l0 0 0 0 0 0 0 0c-11.1899,0 -21.3238,-4.55008 -28.6681,-11.8838 -7.3337,-7.3337 -11.872,-17.4675 -11.872,-28.674l-0.0118 0 0 0 0 0 0.0118 0c0,-11.1958 4.53828,-21.3356 11.872,-28.6681 7.3396,-7.3396 17.4782,-11.8779 28.6681,-11.8779l0 -0.0059 0 0 0.0059 0 0 0.0059c0.15694,0 0.30798,0 0.46374,0l0 0c65.0345,0.02242 130.101,0.02242 195.13,0l0 0c0.15576,0 0.3127,0 0.46964,0l0 -0.0059 0.00472 0 0 0 0 0.0059c11.1911,0 21.3297,4.53828 28.6634,11.8779 7.33842,7.33842 11.8779,17.4723 11.8779,28.6681l0 0 0 0 0 0 0 0c0,11.2065 -4.53946,21.3403 -11.8779,28.674 -7.33842,7.3337 -17.4723,11.8838 -28.6634,11.8838l0 0 0 0 0 0 0 0c-0.16166,0 -0.3186,0 -0.47436,0l0 0c-65.0392,0.01652 -130.084,0.01652 -195.13,0l0 0c-0.15576,0 -0.3068,0 -0.46964,0zm98.0344 -281.146c47.1587,0 85.4013,38.2426 85.4013,85.4013 0,47.1528 -38.2426,85.3966 -85.4013,85.3966 -47.1528,0 -85.3966,-38.2438 -85.3966,-85.3966 0,-47.1587 38.2438,-85.4013 85.3966,-85.4013zm160.938 -30.1773l-0.87674 -1.1741 -0.73868 -1.22956 -0.59236 -1.25198 -0.48616 -1.31924 -0.34692 -1.33104 -0.21712 -1.31334 -0.07906 -1.35818 0.02832 -1.32986 0.16756 -1.2803 0.27376 -1.2626 0.39766 -1.20242 0.5133 -1.14578 0.61006 -1.07852 0.7434 -1.01244 1.08442 -1.21776 1.54816 -1.54816 1.22366 -1.09032 1.00654 -0.73278 1.07262 -0.6195 1.15168 -0.50858 1.20124 -0.39766 1.26968 -0.28438 1.29092 -0.16284 1.30272 -0.02714 1.34048 0.07788 1.35818 0.22892 1.33104 0.35754 1.29682 0.47554 1.2626 0.58646 1.21894 0.7434 1.18472 0.87792 1.34166 1.22956 18.9484 18.9425 42.5414 42.5366c5.57786,5.57196 11.4637,12.7098 17.6292,17.5171l0.49796 0.36344 -0.0059 0.05074c3.30282,2.80014 5.39968,6.97498 5.39968,11.6372 0,4.6669 -2.09686,8.84174 -5.40558,11.6313l0.0059 0.04484 -0.4307 0.3186c-0.15104,0.11682 -0.3068,0.23482 -0.46374,0.34692l-17.2268 17.2268 -42.5414 42.5414 -18.9484 18.9591 -1.34166 1.20714 -1.17882 0.88382 -1.22484 0.7316 -1.2626 0.60416 -1.29092 0.48026 -1.33694 0.34692 -1.3747 0.22302 -1.32396 0.09558 -1.30272 -0.04484 -1.29092 -0.16166 -1.26968 -0.26904 -1.20124 -0.413 -1.14578 -0.50268 -1.07852 -0.61596 -1.00654 -0.7375 -1.21894 -1.08914 -1.55288 -1.56586 -1.08442 -1.20714 -0.7434 -1.00064 -0.61478 -1.07852 -0.50858 -1.1623 -0.39766 -1.19652 -0.28438 -1.25788 -0.16284 -1.28502 -0.02242 -1.33104 0.08378 -1.35228 0.2124 -1.31334 0.34692 -1.33104 0.48616 -1.31806 0.59236 -1.26968 0.7434 -1.21304 0.86612 -1.17882 1.21894 -1.32986 18.9543 -18.9602 36.8455 -36.8396 15.2255 -13.3989 -15.2255 -15.8238 -36.8396 -36.8514 -20.1733 -20.2889z"/>
 </g>
</svg>
