<?xml version="1.0" encoding="UTF-8"?>
<!DOCTYPE svg PUBLIC "-//W3C//DTD SVG 1.1//EN" "http://www.w3.org/Graphics/SVG/1.1/DTD/svg11.dtd">
<!-- Creator: CorelDRAW 2021 (64-Bit Оценочная версия) -->
<svg xmlns="http://www.w3.org/2000/svg" xml:space="preserve" width="5.8594mm" height="5.8593mm" version="1.1" shape-rendering="geometricPrecision" text-rendering="geometricPrecision" image-rendering="optimizeQuality" fill-rule="evenodd" clip-rule="evenodd"
viewBox="0 0 1.97 1.97"
 xmlns:xlink="http://www.w3.org/1999/xlink"
 xmlns:xodm="http://www.corel.com/coreldraw/odm/2003">
 <g id="Слой_x0020_1">
  <metadata id="CorelCorpID_0Corel-Layer"/>
  <path fill="#B2B3B3" d="M0.2 1.35c-0.3,-0.34 -0.26,-0.85 0.08,-1.15 0.34,-0.3 0.85,-0.26 1.15,0.08 0.24,0.28 0.26,0.67 0.08,0.97l0.4 0.4c-0,0 0.01,0.01 0.02,0.02 0.07,0.08 0.06,0.19 -0.02,0.26 -0.08,0.07 -0.19,0.06 -0.26,-0.02l-0.4 -0.4c-0.33,0.21 -0.78,0.15 -1.04,-0.15zm0.19 -0.16c-0.21,-0.23 -0.18,-0.59 0.05,-0.8 0.23,-0.21 0.59,-0.18 0.8,0.05 0.21,0.23 0.18,0.59 -0.05,0.8 -0.23,0.21 -0.59,0.18 -0.8,-0.05z"/>
 </g>
</svg>
