<?xml version="1.0" encoding="UTF-8"?>
<!DOCTYPE svg PUBLIC "-//W3C//DTD SVG 1.1//EN" "http://www.w3.org/Graphics/SVG/1.1/DTD/svg11.dtd">
<!-- Creator: CorelDRAW -->
<svg xmlns="http://www.w3.org/2000/svg" xml:space="preserve" width="319px" height="165px" shape-rendering="geometricPrecision" text-rendering="geometricPrecision" image-rendering="optimizeQuality" fill-rule="evenodd" clip-rule="evenodd"
viewBox="0 0 319 165.407">
 <g id="Layer_x0020_1">
  <metadata id="CorelCorpID_0Corel-Layer"/>
  <path fill="#117734" d="M196.085 148.128l0 0 0 0 0 0 0 0c-4.11746,0 -7.85094,-1.66825 -10.553,-4.36321 -2.69496,-2.71032 -4.36439,-6.43317 -4.36439,-10.5554l-0.00590741 0 0 0 0 0 0.00590741 0c0,-4.12101 1.66943,-7.85094 4.36439,-10.5483 2.70205,-2.69614 6.43553,-4.37266 10.553,-4.37266l0 0 0 0 0 0 0 0c0.0567111,0 0.113422,0 0.170133,0l0 0 106.717 -0.658085 0 0c0.0543481,-0.00354444 0.113422,-0.00354444 0.170133,-0.00354444l0 0 0 0 0 0 0 0c4.12101,0 7.85094,1.67061 10.5494,4.36794 2.6985,2.70205 4.36912,6.43553 4.36912,10.5506l0 0 0 0 0 0 0 0c0,4.12219 -1.67061,7.84976 -4.36912,10.5494 -2.6985,2.70087 -6.42844,4.3703 -10.5494,4.3703l0 0 0 0 0 0 0 0c-0.0567111,0 -0.115785,0 -0.170133,0l0 0c-15.2506,0.00354444 -91.4668,0.667537 -106.717,0.662811l0 0c-0.0590741,0 -0.113422,0 -0.170133,0zm0 -49.953l0 0 0 0 0 0 0 0c-4.11746,0 -7.85094,-1.66707 -10.553,-4.36203 -2.69496,-2.71032 -4.36439,-6.43317 -4.36439,-10.5554l-0.00590741 0 0 0 0 0 0.00590741 0c0,-4.12101 1.66943,-7.85094 4.36439,-10.5494 2.70205,-2.69614 6.43553,-4.37148 10.553,-4.37148l0 0 0 0 0 0 0 0c0.0567111,0 0.113422,0 0.170133,0l0 0 106.717 -0.659267 0 0c0.0543481,-0.00236296 0.113422,-0.00236296 0.170133,-0.00236296l0 0 0 0 0 0 0 0c4.12101,0 7.85094,1.66943 10.5494,4.36794 2.6985,2.70205 4.36912,6.43435 4.36912,10.5494l0 0 0 0 0 0 0 0c0,4.12219 -1.67061,7.85094 -4.36912,10.5506 -2.6985,2.69969 -6.42844,4.3703 -10.5494,4.3703l0 0 0 0 0 0 0 0c-0.0567111,0 -0.115785,0 -0.170133,0l0 0c-15.2506,0.00236296 -91.4668,0.667537 -106.717,0.66163l0 0c-0.0590741,0 -0.113422,0 -0.170133,0zm0 -49.953l0 0 0 0 0 0 0 0c-4.11746,0 -7.85094,-1.66825 -10.553,-4.36321 -2.69496,-2.70914 -4.36439,-6.43435 -4.36439,-10.5542l-0.00590741 0 0 0 0 0 0.00590741 0c0,-4.12219 1.66943,-7.85331 4.36439,-10.5506 2.70205,-2.69496 6.43553,-4.37148 10.553,-4.37148l0 0 0 0 0 0 0 0c0.0567111,0 0.113422,0 0.171315,0l0 0 106.715 -0.658085 0 0c0.0555296,-0.00354444 0.114604,-0.00354444 0.171315,-0.00354444l0 0 0 0 0 0 0 0c4.12101,0 7.85213,1.67061 10.5494,4.36794 2.6985,2.70205 4.36912,6.43553 4.36912,10.5506l0 0 0 0 0 0 0 0c0,4.12101 -1.67061,7.85213 -4.36912,10.5494 -2.69732,2.70087 -6.42844,4.37148 -10.5494,4.37148l0 0 0 0 0 0 0 0c-0.0567111,0 -0.115785,0 -0.171315,0l0 0c-15.2494,0.00236296 -91.4656,0.666356 -106.715,0.66163l0 0c-0.0602556,0 -0.114604,0 -0.171315,0zm-168.949 -45.5059l108.731 0c14.2156,0 25.8437,11.6293 25.8437,25.8437l0 108.731c0,14.2144 -11.6281,25.8425 -25.8437,25.8425l-108.731 0c-14.2144,0 -25.8437,-11.6281 -25.8437,-25.8425l0 -108.731c0,-14.2144 11.6293,-25.8437 25.8437,-25.8437z"/>
 </g>
</svg>
