<?xml version="1.0" encoding="UTF-8"?>
<!DOCTYPE svg PUBLIC "-//W3C//DTD SVG 1.1//EN" "http://www.w3.org/Graphics/SVG/1.1/DTD/svg11.dtd">
<!-- Creator: CorelDRAW -->
<svg xmlns="http://www.w3.org/2000/svg" xml:space="preserve" width="260px" height="307px" shape-rendering="geometricPrecision" text-rendering="geometricPrecision" image-rendering="optimizeQuality" fill-rule="evenodd" clip-rule="evenodd"
viewBox="0 0 260 307.273">
 <g id="Layer_x0020_1">
  <metadata id="CorelCorpID_0Corel-Layer"/>
  <path fill="#B2B2B2" d="M236.696 85.9773l-212.141 0 16.1295 178.881c1.57655,25.4954 10.8987,34.5055 23.6045,36.3066l112.745 0 17.3385 0c10.7995,-1.56 19.1384,-8.36136 22.3352,-26.1099l1.80109 -17.0371 18.187 -172.041zm-97.2648 -81.4592l-17.8691 0c-9.22764,0.0839091 -13.3876,5.41627 -13.3534,15.1001l0 4.67882 -83.7259 0c-15.1982,0.0626364 -22.7571,7.12636 -22.6767,21.1959l0 18.3631 257.639 0 0 -18.3631c0.0602727,-13.0355 -6.08518,-20.8969 -21.3011,-21.1959l-85.1015 0 0 -4.67882c-0.192636,-8.79982 -3.48755,-14.9098 -13.611,-15.1001z"/>
 </g>
</svg>
