<?xml version="1.0" encoding="UTF-8"?>
<!DOCTYPE svg PUBLIC "-//W3C//DTD SVG 1.1//EN" "http://www.w3.org/Graphics/SVG/1.1/DTD/svg11.dtd">
<!-- Creator: CorelDRAW 2021 (64-Bit Оценочная версия) -->
<svg xmlns="http://www.w3.org/2000/svg" xml:space="preserve" width="12.0798mm" height="12.1671mm" version="1.1" shape-rendering="geometricPrecision" text-rendering="geometricPrecision" image-rendering="optimizeQuality" fill-rule="evenodd" clip-rule="evenodd"
viewBox="0 0 7.19 7.25"
 xmlns:xlink="http://www.w3.org/1999/xlink"
 xmlns:xodm="http://www.corel.com/coreldraw/odm/2003">
 <defs>
   <linearGradient id="id0" gradientUnits="userSpaceOnUse" x1="0.78" y1="0.81" x2="6.41" y2="6.44">
    <stop offset="0" stop-opacity="1" stop-color="#009A84"/>
    <stop offset="0.25098" stop-opacity="1" stop-color="#218A7F"/>
    <stop offset="1" stop-opacity="1" stop-color="#437A79"/>
   </linearGradient>
 </defs>
 <g id="Слой_x0020_1">
  <metadata id="CorelCorpID_0Corel-Layer"/>
  <path fill="url(#id0)" d="M3.6 6.49l-1.98 0 -0.04 0 0 -0c-0.42,-0.02 -0.75,-0.34 -0.79,-0.74l-0.01 0 -0.23 -0.97c-0.11,-0.04 -0.21,-0.1 -0.29,-0.18 -0.16,-0.13 -0.26,-0.33 -0.26,-0.56 0,-0.39 0.31,-0.68 0.68,-0.71 0.66,-0.05 1.28,0.48 1.27,1.16 -0,0.08 -0.01,0.16 -0.03,0.23 0.45,-0.15 1.03,-0.23 1.68,-0.23 0.64,0 1.23,0.09 1.68,0.23 -0.02,-0.07 -0.03,-0.15 -0.03,-0.23 -0.01,-0.68 0.6,-1.22 1.27,-1.16 0.37,0.03 0.68,0.32 0.68,0.71 0,0.23 -0.1,0.43 -0.26,0.56 -0.08,0.07 -0.18,0.13 -0.29,0.18l-0.23 0.97 -0.01 0c-0.04,0.4 -0.37,0.72 -0.79,0.74l0 0 -0.04 0 -1.98 0zm1.78 0.01c-0.21,0 -0.38,0.17 -0.38,0.37 0,0.21 0.17,0.37 0.38,0.37 0.21,0 0.38,-0.17 0.38,-0.37 0,-0.21 -0.17,-0.37 -0.38,-0.37zm-3.56 0c0.21,0 0.38,0.17 0.38,0.37 0,0.21 -0.17,0.37 -0.38,0.37 -0.21,0 -0.38,-0.17 -0.38,-0.37 0,-0.21 0.17,-0.37 0.38,-0.37zm1.77 -6.5c1.24,0 2.25,0.99 2.25,2.2l0 0 0 0.83 -0.03 0.01 -0.07 0.03 -0.07 0.04 -0.07 0.04 -0.07 0.04 -0.07 0.05 -0.06 0.05 -0.06 0.05 -0.06 0.06 -0.06 0.06 -0.05 0.06 -0.05 0.06 -0.05 0.07 -0.04 0.07 -0.04 0.07 -0.04 0.07 -0.03 0.08 -0.03 0.08 -0.02 0.08 -0.02 0.08 -0 0.02 -0.05 -0.01 -0.06 -0.01 -0.06 -0.01 -0.06 -0.01 -0.06 -0.01 -0.06 -0.01 -0.06 -0.01 -0.06 -0.01 -0.06 -0.01 -0.06 -0.01 -0.06 -0.01 -0.06 -0.01 -0.06 -0 -0.06 -0 -0.06 -0 -0.06 -0 -0.06 -0 -0.06 -0 -0.06 -0 -0.06 -0 -0.06 -0 -0.06 0 -0.06 0 -0.06 0 -0.06 0 -0.06 0 -0.06 0 -0.06 0 -0.06 0 -0.06 0 -0.06 0.01 -0.06 0.01 -0.06 0.01 -0.06 0.01 -0.06 0.01 -0.06 0.01 -0.06 0.01 -0.06 0.01 -0.06 0.01 -0.06 0.01 -0.06 0.01 -0.05 0.01 -0 -0.02 -0.02 -0.08 -0.02 -0.08 -0.03 -0.08 -0.03 -0.08 -0.04 -0.07 -0.04 -0.07 -0.04 -0.07 -0.05 -0.07 -0.05 -0.06 -0.05 -0.06 -0.06 -0.06 -0.06 -0.06 -0.06 -0.05 -0.06 -0.05 -0.07 -0.05 -0.07 -0.04 -0.07 -0.04 -0.07 -0.04 -0.07 -0.03 -0.04 -0.01 0 -0.82 0 0c0,-1.22 1.01,-2.2 2.25,-2.2z"/>
 </g>
</svg>
