<?xml version="1.0" encoding="UTF-8"?>
<!DOCTYPE svg PUBLIC "-//W3C//DTD SVG 1.1//EN" "http://www.w3.org/Graphics/SVG/1.1/DTD/svg11.dtd">
<!-- Creator: CorelDRAW 2021 (64-Bit Оценочная версия) -->
<svg xmlns="http://www.w3.org/2000/svg" xml:space="preserve" width="7.9405mm" height="7.9408mm" version="1.1" shape-rendering="geometricPrecision" text-rendering="geometricPrecision" image-rendering="optimizeQuality" fill-rule="evenodd" clip-rule="evenodd"
viewBox="0 0 2.95 2.95"
 xmlns:xlink="http://www.w3.org/1999/xlink"
 xmlns:xodm="http://www.corel.com/coreldraw/odm/2003">
 <g id="Слой_x0020_1">
  <metadata id="CorelCorpID_0Corel-Layer"/>
  <path fill="#FEFEFE" fill-rule="nonzero" d="M1.48 0c-0.82,0 -1.48,0.66 -1.48,1.48 0,0.6 0.36,1.12 0.88,1.35 -0,-0.1 -0,-0.23 0.03,-0.34 0.03,-0.12 0.19,-0.81 0.19,-0.81 0,0 -0.05,-0.09 -0.05,-0.23 0,-0.22 0.13,-0.38 0.29,-0.38 0.13,0 0.2,0.1 0.2,0.22 0,0.14 -0.09,0.34 -0.13,0.52 -0.04,0.16 0.08,0.28 0.23,0.28 0.28,0 0.47,-0.36 0.47,-0.79 0,-0.32 -0.22,-0.57 -0.61,-0.57 -0.45,0 -0.73,0.33 -0.73,0.71 0,0.13 0.04,0.22 0.1,0.29 0.03,0.03 0.03,0.05 0.02,0.08 -0.01,0.03 -0.02,0.09 -0.03,0.12 -0.01,0.04 -0.04,0.05 -0.07,0.04 -0.21,-0.08 -0.3,-0.31 -0.3,-0.56 0,-0.42 0.35,-0.92 1.06,-0.92 0.56,0 0.94,0.41 0.94,0.85 0,0.58 -0.32,1.01 -0.8,1.01 -0.16,0 -0.31,-0.09 -0.36,-0.18 0,0 -0.09,0.34 -0.1,0.41 -0.03,0.11 -0.09,0.23 -0.15,0.32 0.13,0.04 0.27,0.06 0.42,0.06 0.82,0 1.48,-0.66 1.48,-1.48 0,-0.82 -0.66,-1.48 -1.48,-1.48z"/>
 </g>
</svg>
